<?xml version="1.0" encoding="utf-8"?>
<!-- Generator: Adobe Illustrator 22.1.0, SVG Export Plug-In . SVG Version: 6.00 Build 0)  -->
<svg version="1.1" id="Layer_1" xmlns="http://www.w3.org/2000/svg" xmlns:xlink="http://www.w3.org/1999/xlink" x="0px" y="0px"
	 width="303px" height="147px" viewBox="0 0 303 147" style="enable-background:new 0 0 303 147;" xml:space="preserve">
<style type="text/css">
	.st0{fill:#164193;}
	.st1{fill:#FFFFFF;}
	.st2{fill:url(#SVGID_1_);}
	.st3{fill:url(#SVGID_2_);}
	.st4{fill:url(#SVGID_3_);}
	.st5{fill:url(#SVGID_4_);}
	.st6{fill:url(#SVGID_5_);}
	.st7{fill:url(#SVGID_6_);}
	.st8{fill:url(#SVGID_7_);}
	.st9{fill:url(#SVGID_8_);}
	.st10{fill:url(#SVGID_9_);}
	.st11{fill:url(#SVGID_10_);}
	.st12{fill:#13377D;}
	.st13{fill:url(#SVGID_11_);}
	.st14{fill:#123172;}
	.st15{fill:#58277C;}
	.st16{fill:#572765;}
	.st17{fill:#6F2780;}
</style>
<g>
	<path class="st0" d="M179.6,56.2c-7.2-3.2-16-3.4-21-3.2c-10.2,0.4-13.4,1.3-13.4,1.3v48.9c0,0.6,0.4,1.1,0.9,1.3
		c0,0,4.6,1.4,12.6,1.6c10.2,0.3,17.7-1.1,23.3-4.8c7.5-5,11.2-12.1,11.2-22.6C193.2,67.8,188.6,60.2,179.6,56.2z M166.2,94.7
		c-4.3,0.2-7-0.1-8.3-0.5l0-29.5c1.4-0.2,4.5-0.5,8.6-0.3c5.2,0.2,13.8,2,13.8,13.8C180.4,90.5,171.5,94.5,166.2,94.7z M220.1,73.5
		c-0.2-0.1-0.4-0.1-0.6-0.2c-3.6-1.2-6.6-3.1-6.7-5.6c-0.1-1.3,0.4-2.6,1.1-3.3c1-1.1,2.9-1.5,4-1.5c5.7,0,11,2.7,11,2.7l3.1-8.4
		c0.1-0.3,0.1-0.7,0-1c-0.2-0.3-0.4-0.6-0.8-0.7l-0.1,0c-2.7-1-7.7-2.5-13.4-2.6c-11.1-0.1-17.7,5.5-17.7,14.6
		c0,10.8,9.1,14.3,12.1,15.5c0.5,0.2,1.1,0.4,1.7,0.7c2,0.7,4.2,1.7,5.8,2.7c1.8,1.1,2.2,3.2,1.9,4.6c-0.8,4-5.2,4.8-8.7,4.3
		c-6.7-1-10.2-2.8-10.2-2.8l-2.9,8.5c-0.2,0.6,0.1,1.3,0.6,1.6c0.1,0,6.2,3.1,14,3.1c9,0,19.4-4.3,19.4-16.3
		C233.9,78.3,224.3,74.9,220.1,73.5z M301.2,55.4v48.3c0,0.4-0.1,0.7-0.4,1c-0.3,0.2-0.6,0.4-0.9,0.4l-11.3,0c0,0,0.1-19.9,0-23.9
		c0-2.6,0.8-10.6,1.1-11.9c0,0,0-0.1,0-0.1c0-0.2-0.2-0.1-0.3-0.1c0,0-0.1,0.1-0.1,0.1l-12.8,20.7c-0.1,0.1-0.2,0.3-0.3,0.4
		c-0.2,0.3-0.6,0.4-1,0.4l-3.2,0h0l-3.2,0c-0.4,0-0.7-0.1-1-0.4c-0.1-0.1-0.2-0.2-0.3-0.4l-12.8-20.7c0,0,0-0.1-0.1-0.1
		c-0.1,0-0.2-0.1-0.3,0.1c0,0,0,0.1,0,0.1c0.3,1.3,1.1,9.3,1.1,11.9c-0.1,4,0,23.9,0,23.9l-11.3,0c-0.4,0-0.7-0.1-0.9-0.4
		c-0.3-0.3-0.4-0.6-0.4-1V55.4c0-0.7,0.6-1.3,1.4-1.3H258c0.6,0,1,0.3,1.3,0.8c0,0,9.7,16.6,10.8,18.6c0.7,1.3,1.8,4.2,1.8,4.4v0
		l0,0c0,0,0,0,0,0h0c0,0.1,0.1,0.2,0.2,0.2l0,0c0,0,0,0,0,0h0l0,0c0.1,0,0.2-0.1,0.2-0.2h0c0,0,0,0,0,0l0,0v0c0-0.2,1.1-3.1,1.8-4.4
		c1.2-2,10.8-18.6,10.8-18.6c0.3-0.5,0.7-0.8,1.3-0.8h13.7C300.6,54.1,301.2,54.7,301.2,55.4z"/>
	<g>
		<path class="st1" d="M120.8,4.6c-11.3,3.4-18.8,8-21.9,17C91.7,12.8,81.9,6.1,70.4,3C39.9-5.2,13.9,5.8,0.1,24.6
			c0,0,5.1,8.2,17.5,12.5C8.4,46.4,3.7,59,3.7,71.5c0,19.1,10.4,38,30.3,47.1c0,0,0,0,0-0.1c0,0,0,0,0,0c0.8,2.1,1.6,4.3,2.7,6.4
			C49.9,152.2,76.3,146,76.3,146s4.7-9,1.4-19.2c12.1-0.5,23-9.9,23-9.9c0,0,0,0,0,0c12.5-3.9,18.4-12.2,17.3-14.5
			c-1.7-1.1-3.1-2.8-4.2-4.7C144.3,75.6,136.7,19.9,120.8,4.6z"/>
		<g>
			<linearGradient id="SVGID_1_" gradientUnits="userSpaceOnUse" x1="131.9854" y1="14.7881" x2="82.0772" y2="106.2862">
				<stop  offset="0" style="stop-color:#F9B500"/>
				<stop  offset="0.12" style="stop-color:#F6A500"/>
				<stop  offset="0.8418" style="stop-color:#BE2C7A"/>
			</linearGradient>
			<path class="st2" d="M118.8,7.6c-16.7,5-24.7,12.8-22.2,34.3c2.1,14.1,0.9,26.2-1.3,34.3c-0.4,1.7-0.9,3.1-1.4,4.3
				c-0.1,0.5-0.3,1-0.6,1.5c-1.3,2.6-4.1,8.1-5.4,10.1c-1,1.6-3.4,4.1-6.4,4.1c-2.9,0-9.3-0.3-11-0.3c-1.6,0-4.5,0.2-4.5,0.2
				c4.3,4.6,11.7,8.8,21.8,8.9c7.5,0.1,16-2,24.1-7.9C141.4,76,134.1,22.3,118.8,7.6z"/>
			<linearGradient id="SVGID_2_" gradientUnits="userSpaceOnUse" x1="59.7316" y1="143.9364" x2="59.7316" y2="57.5043">
				<stop  offset="0" style="stop-color:#99C44B"/>
				<stop  offset="0.2704" style="stop-color:#78B844"/>
				<stop  offset="1" style="stop-color:#00793D"/>
			</linearGradient>
			<path class="st3" d="M57.6,59.5C37,66,26.2,91.5,35.4,117c0.7,2.1,1.6,4.1,2.6,6.1C50.7,149.3,76,143.4,76,143.4
				s9.2-17.4-7.8-30.8C56.4,103.1,50.3,93.7,56,79c0.3-0.8,0.7-1.6,1-2.4c0.1-0.1,0.1-0.3,0.2-0.5c2-4.3,4.9-8.6,6.8-11.3
				c1.2-1.8,2.7-2.7,5.9-2.9c3-0.3,10.1-0.1,12,0.1c2.8,0.2,4,0.7,5.4,2.8c0,0.1,0.1,0.1,0.1,0.2C83.3,57.4,70.2,55.6,57.6,59.5z"/>
			<linearGradient id="SVGID_3_" gradientUnits="userSpaceOnUse" x1="92.7309" y1="122.4411" x2="48.773" y2="79.9915">
				<stop  offset="0" style="stop-color:#3EB8BC"/>
				<stop  offset="0.2615" style="stop-color:#21B2A8"/>
				<stop  offset="0.8872" style="stop-color:#009378"/>
			</linearGradient>
			<path class="st4" d="M71.7,96.2c-2.2-0.3-3.9-0.3-5-0.7l0,0c-1-0.4-1.9-1-2.7-2.2c-1.8-2.6-5.3-8.6-6.5-11.1
				c-1.3-2.7-1.2-3.9-0.2-6c2-4.3,5-8.6,6.8-11.3c0-0.1,0.1-0.1,0.1-0.2c-0.9,0.7-7.9,6.8-12.6,13.2c-8.6,11.8-6.2,28.2,3.6,38.3
				c7.2,7.4,15.5,8.9,21.9,8.8c11.7-0.3,22.5-9.5,22.5-9.5C95.7,104.1,84.7,97.9,71.7,96.2z"/>
			<g>
				<g>
					<linearGradient id="SVGID_4_" gradientUnits="userSpaceOnUse" x1="61.8134" y1="64.6951" x2="61.8134" y2="124.9778">
						<stop  offset="0" style="stop-color:#005328"/>
						<stop  offset="0.9066" style="stop-color:#008A60"/>
					</linearGradient>
					<path class="st5" d="M77,125c0.1,0,0.2,0,0.4,0c-1.4-4.1-4.1-8.4-9.1-12.4C56.4,103.1,50.3,93.7,56,79c0.3-0.8,0.7-1.6,1-2.4
						c0.1-0.1,0.1-0.3,0.2-0.5c2-4.3,5-8.6,6.8-11.3c0-0.1,0.1-0.1,0.1-0.2c-0.9,0.7-7.9,6.8-12.6,13.2c-8.6,11.8-6.2,28.2,3.6,38.3
						C62.3,123.6,70.6,125.1,77,125z"/>
				</g>
			</g>
			<linearGradient id="SVGID_5_" gradientUnits="userSpaceOnUse" x1="46.7241" y1="2.2547" x2="72.7086" y2="99.23">
				<stop  offset="5.102040e-03" style="stop-color:#74CBF3"/>
				<stop  offset="0.5969" style="stop-color:#04BAEE"/>
			</linearGradient>
			<path class="st6" d="M107.3,40.6c-5.8-16.1-19.4-29.8-36.9-34.5C41-1.8,16,8.7,2.8,26.8c0,0,9.8,15.7,35.1,14.4
				c16.4-0.9,33.4,0.7,45.4,17.7c1.3,1.8,2.5,3.6,3.6,5.3c0.1,0.2,0.3,0.4,0.4,0.5c1.3,2,3.3,4.9,6.2,10.5c1,1.9,1.1,4.3-0.1,6.7
				c-1.3,2.6-4.1,8.1-5.4,10.1c-0.9,1.5-3.1,3.8-5.9,4c0,0,0,0,0,0c9.8-0.5,17.9-6.7,23.2-16.1C111.5,68.9,112,53.7,107.3,40.6z"/>
			<linearGradient id="SVGID_6_" gradientUnits="userSpaceOnUse" x1="45.5656" y1="25.6341" x2="60.8828" y2="112.5024">
				<stop  offset="0.1582" style="stop-color:#0091D7"/>
				<stop  offset="0.6" style="stop-color:#164193"/>
				<stop  offset="1" style="stop-color:#123376"/>
			</linearGradient>
			<path class="st7" d="M96,47.1c-5.6-10.2-18.6-22.2-41.1-22.2c-31.7,0-48.6,23.8-48.6,46.9c0,18.3,9.9,36.5,29,45.2
				c-6.9-28,5.5-53.3,34.2-55c0.1,0,0.2,0,0.4,0c3-0.3,10.1-0.1,12,0.1c2.8,0.2,4,0.7,5.4,2.8c1.3,2,3.3,4.9,6.2,10.5
				c1,1.9,1.1,4.3-0.1,6.7c-1.1,2.3-3.4,6.7-4.8,9.2c0.3-0.4,7-8.2,9-13.3C102.5,65.8,98.9,52.5,96,47.1z"/>
			<linearGradient id="SVGID_7_" gradientUnits="userSpaceOnUse" x1="96.262" y1="87.0917" x2="96.262" y2="38.3187">
				<stop  offset="0" style="stop-color:#432A72"/>
				<stop  offset="1" style="stop-color:#B48A6C"/>
			</linearGradient>
			<path class="st8" d="M82.1,96.2c9.8-0.5,17.9-6.7,23.2-16.1c6.2-11.1,6.8-26.3,2-39.5c-2.2-6-5.4-11.7-9.6-16.7
				c-1.6,4.6-2,10.5-1.2,18c2.1,14.1,0.9,26.2-1.3,34.3c-0.4,1.7-0.9,3.1-1.4,4.3c-0.1,0.5-0.3,1-0.6,1.5c-1.3,2.6-4.1,8.1-5.4,10.1
				C87.1,93.6,84.9,95.9,82.1,96.2L82.1,96.2z"/>
			<linearGradient id="SVGID_8_" gradientUnits="userSpaceOnUse" x1="26.0834" y1="27.5346" x2="101.71" y2="71.1976">
				<stop  offset="0" style="stop-color:#0082CA"/>
				<stop  offset="0.201" style="stop-color:#0479C2"/>
				<stop  offset="0.5286" style="stop-color:#1061AE"/>
				<stop  offset="0.9401" style="stop-color:#24398C"/>
				<stop  offset="1" style="stop-color:#273387"/>
			</linearGradient>
			<path class="st9" d="M97.6,77.9c4.8-12.1,1.3-25.4-1.6-30.7c-5.6-10.2-18.6-22.2-41.1-22.2c-15.3,0-27.1,5.5-35.3,13.9
				c4.9,1.7,10.9,2.8,18.3,2.4c16.4-0.9,33.4,0.7,45.4,17.7c1.3,1.8,2.5,3.6,3.6,5.3h0c0.1,0.1,0.1,0.2,0.2,0.2
				c0.1,0.1,0.1,0.2,0.2,0.3c1.3,2,3.3,4.9,6.2,10.5c1,1.9,1.1,4.3-0.1,6.7c-1.1,2.3-3.4,6.7-4.8,9.2C88.9,90.8,95.6,83,97.6,77.9z"
				/>
			<linearGradient id="SVGID_9_" gradientUnits="userSpaceOnUse" x1="90.6596" y1="123.5472" x2="74.1282" y2="95.4148">
				<stop  offset="0" style="stop-color:#D779AE"/>
				<stop  offset="1" style="stop-color:#9D1980"/>
			</linearGradient>
			<path class="st10" d="M116.1,101.5c-4-2.7-6.4-8.5-6.2-14.2c0.2-6.1-3.4-5.2-3.4-5.2S99,96,81.7,96.2c0,0,0,0,0,0
				c-3.2,0-8.6-0.2-10.9-0.3c-11.1,0.1-21.9,2.2-30.6,13.3c0,0,9.2-0.5,27.4,5.1C101.2,124.7,117.9,105.2,116.1,101.5z"/>
			<linearGradient id="SVGID_10_" gradientUnits="userSpaceOnUse" x1="97.6834" y1="106.7981" x2="87.3695" y2="89.2463">
				<stop  offset="0" style="stop-color:#B13580"/>
				<stop  offset="0.8" style="stop-color:#9C1C78"/>
			</linearGradient>
			<path class="st11" d="M106.5,82.2c0,0-7.5,13.7-24.6,14c-0.1,0-0.2,0-0.3,0c-0.9,0-2,0-3.3-0.1c-2.8-0.1-6-0.2-7.6-0.2
				c-0.6,0-1.2,0-1.8,0c-1,0-1.9,0.1-2.4,0.1c-0.1,0-0.2,0-0.4,0c4.3,4.6,11.7,8.8,21.8,8.9c7.5,0.1,16-2.1,24.1-7.9
				c0.1,0,0.1-0.1,0.2-0.1c-1.5-2.8-2.3-6.2-2.2-9.6C110.2,81.2,106.5,82.2,106.5,82.2z"/>
			<path class="st12" d="M57.6,59.5C37,66,26.2,91.5,35.4,117c-6.9-28,5.5-53.2,34.2-55c0.1,0,0.2,0,0.4,0c3-0.3,10.1-0.1,12,0.1
				c2.8,0.2,4,0.7,5.4,2.8c0,0.1,0.1,0.1,0.1,0.2C83.3,57.4,70.2,55.6,57.6,59.5z"/>
			<linearGradient id="SVGID_11_" gradientUnits="userSpaceOnUse" x1="37.8048" y1="106.6478" x2="87.631" y2="106.6478">
				<stop  offset="0" style="stop-color:#55377F"/>
				<stop  offset="1" style="stop-color:#944B96"/>
			</linearGradient>
			<path class="st13" d="M99.5,115.4c-3.8-11.3-14.8-17.5-27.8-19.2c-0.9-0.1-1.7-0.2-2.4-0.3c-10.6,0.3-20.8,2.7-29.2,13.3
				c0,0,9.2-0.5,27.4,5.1C80.9,118.5,91.6,117.9,99.5,115.4z"/>
			<path class="st14" d="M97.4,50.4c0.6,10.5-0.5,19.3-2.1,25.8c-0.4,1.7-0.9,3.1-1.4,4.3c0,0,0,0,0,0c-0.1,0.2-0.1,0.4-0.2,0.7
				c0,0,0,0.1-0.1,0.1c-0.1,0.2-0.2,0.4-0.2,0.6c0,0,0,0.1,0,0.1c-1.1,2.3-3.4,6.7-4.8,9.2c0.4-0.4,7-8.2,9-13.3
				C101.7,67.8,99.9,56.8,97.4,50.4z"/>
			<path class="st15" d="M71.5,115.5c-1-1-2.2-2-3.4-3c-5.8-4.6-10-9.2-12.4-14.4c-5.6,1.9-11.1,5.2-15.8,11.2c0,0,9.2-0.5,27.4,5.1
				C68.7,114.8,70.2,115.1,71.5,115.5z"/>
			<g>
				<path class="st16" d="M70.7,95.9c1.6,0,4.8,0.1,7.6,0.2C75.3,96,71.8,95.9,70.7,95.9c-0.4,0-0.9,0-1.4,0c0,0,0,0,0,0
					C69.8,95.9,70.2,95.9,70.7,95.9z"/>
				<path class="st16" d="M81.9,96.2c-0.1,0-0.1,0-0.2,0c0,0,0,0,0,0c-1,0-2.1,0-3.3-0.1c1.3,0,2.4,0.1,3.3,0.1
					C81.7,96.2,81.8,96.2,81.9,96.2z"/>
				<path class="st16" d="M66.1,96.1c0.1,0,0.2,0,0.4,0C66.2,96.1,66.1,96.1,66.1,96.1L66.1,96.1z"/>
				<path class="st16" d="M66.1,96.1c0.1,0,0.2,0,0.4,0C66.2,96.1,66.1,96.1,66.1,96.1L66.1,96.1z"/>
				<path class="st16" d="M69.3,96C69.3,95.9,69.3,95.9,69.3,96c-0.2,0-0.3,0-0.4,0C69,96,69.2,96,69.3,96z"/>
				<path class="st16" d="M69.3,96C69.3,95.9,69.3,95.9,69.3,96c-0.2,0-0.3,0-0.4,0C69,96,69.2,96,69.3,96z"/>
				<path class="st16" d="M69.3,96c-0.1,0-0.3,0-0.4,0c-0.8,0-1.6,0.1-2.4,0.1c-0.1,0-0.2,0-0.4,0c4.3,4.6,11.7,8.8,21.8,8.9
					c1.5,0,3,0,4.5-0.2c-5.3-4.7-12.6-7.5-20.7-8.6C70.8,96.1,70.1,96,69.3,96z"/>
				<path class="st16" d="M69.3,96c-0.1,0-0.3,0-0.4,0c-0.8,0-1.6,0.1-2.4,0.1c-0.1,0-0.3,0-0.4,0c4.3,4.6,11.7,8.8,21.8,8.9
					c1.5,0,3,0,4.5-0.2c-5.3-4.7-12.6-7.5-20.7-8.6C70.8,96.1,70.1,96,69.3,96z"/>
				<path class="st17" d="M69.3,96c-0.1,0-0.3,0-0.4,0c-0.8,0-1.6,0.1-2.4,0.1c-0.1,0-0.3,0-0.4,0c4.3,4.6,11.7,8.8,21.8,8.9
					c1.5,0,3,0,4.5-0.2c-5.3-4.7-12.6-7.5-20.7-8.6C70.8,96.1,70.1,96,69.3,96z"/>
			</g>
		</g>
	</g>
</g>
</svg>
